# xmcd
#
# Track frame offsets:
#	150
#	14874
#	33767
#	50893
#	70495
#	91594
#	110806
#	132003
#	158537
#	174366
#	197027
#
# Disc length: 3012 seconds
#
# Revision: 1
# Processed by: cddbd v1.5.1PL0 Copyright (c) Steve Scherf et al.
# Submitted via: audiograbber 1.83.01
#
DISCID=910bc20b
DTITLE=Shania TWAIN - Up - Live from Chicago [CD2]
DYEAR=2003
DGENRE=Country
TTITLE0=No one needs to know
TTITLE1=Thank you baby
TTITLE2=It only hurts when I'm breathing
TTITLE3=Juanita
TTITLE4=Who's bed have you boots been under
TTITLE5=Any man of mine
TTITLE6=In my car (I'll be the driver)
TTITLE7=(If you're not in it for love) I'm outta here
TTITLE8=You are still the one
TTITLE9=Nah
TTITLE10=Rock this country
EXTD=
EXTT0=
EXTT1=
EXTT2=
EXTT3=
EXTT4=
EXTT5=
EXTT6=
EXTT7=
EXTT8=
EXTT9=
EXTT10=
PLAYORDER=
